<mxfile host="app.diagrams.net" agent="Mozilla/5.0 (Windows NT 10.0; Win64; x64) AppleWebKit/537.36 (KHTML, like Gecko) Chrome/137.0.0.0 Safari/537.36" version="27.0.6">
  <diagram name="Sivu-1" id="R_JfShegx6467Z5t7qbP">
    <mxGraphModel dx="1246" dy="1345" grid="1" gridSize="10" guides="1" tooltips="1" connect="1" arrows="1" fold="1" page="0" pageScale="1" pageWidth="850" pageHeight="1100" math="0" shadow="0">
      <root>
        <mxCell id="0" />
        <mxCell id="1" parent="0" />
        <mxCell id="hAxypo4oCh0n1vUcBeg1-1" value="" style="rounded=0;whiteSpace=wrap;html=1;" vertex="1" parent="1">
          <mxGeometry y="-40" width="450" height="780" as="geometry" />
        </mxCell>
        <mxCell id="hAxypo4oCh0n1vUcBeg1-2" value="&lt;h1 style=&quot;margin-top: 0px;&quot;&gt;Heading&lt;/h1&gt;&lt;p&gt;Lorem ipsum dolor sit amet, consectetur adipisicing elit, sed do eiusmod tempor incididunt ut labore et dolore magna aliqua.&lt;/p&gt;" style="text;html=1;whiteSpace=wrap;overflow=hidden;rounded=0;" vertex="1" parent="1">
          <mxGeometry x="30" y="-10" width="180" height="120" as="geometry" />
        </mxCell>
        <mxCell id="hAxypo4oCh0n1vUcBeg1-3" value="" style="rounded=0;whiteSpace=wrap;html=1;" vertex="1" parent="1">
          <mxGeometry x="210" y="-10" width="210" height="110" as="geometry" />
        </mxCell>
        <mxCell id="hAxypo4oCh0n1vUcBeg1-4" value="" style="rounded=0;whiteSpace=wrap;html=1;" vertex="1" parent="1">
          <mxGeometry x="343" y="247" width="76.36" height="40" as="geometry" />
        </mxCell>
        <mxCell id="hAxypo4oCh0n1vUcBeg1-5" value="" style="rounded=0;whiteSpace=wrap;html=1;" vertex="1" parent="1">
          <mxGeometry x="343" y="297" width="76.36" height="40" as="geometry" />
        </mxCell>
        <mxCell id="hAxypo4oCh0n1vUcBeg1-6" value="" style="rounded=0;whiteSpace=wrap;html=1;" vertex="1" parent="1">
          <mxGeometry x="343" y="347" width="76.36" height="40" as="geometry" />
        </mxCell>
        <mxCell id="hAxypo4oCh0n1vUcBeg1-7" value="" style="rounded=0;whiteSpace=wrap;html=1;" vertex="1" parent="1">
          <mxGeometry x="71" y="407" width="50" height="40" as="geometry" />
        </mxCell>
        <mxCell id="hAxypo4oCh0n1vUcBeg1-8" value="" style="rounded=0;whiteSpace=wrap;html=1;" vertex="1" parent="1">
          <mxGeometry x="170" y="407" width="50" height="40" as="geometry" />
        </mxCell>
        <mxCell id="hAxypo4oCh0n1vUcBeg1-9" value="" style="rounded=0;whiteSpace=wrap;html=1;" vertex="1" parent="1">
          <mxGeometry x="267" y="407" width="50" height="40" as="geometry" />
        </mxCell>
        <mxCell id="hAxypo4oCh0n1vUcBeg1-10" value="" style="rounded=0;whiteSpace=wrap;html=1;" vertex="1" parent="1">
          <mxGeometry x="369.36" y="407" width="50" height="40" as="geometry" />
        </mxCell>
        <mxCell id="hAxypo4oCh0n1vUcBeg1-11" value="&lt;font style=&quot;font-size: 24px;&quot;&gt;Lorem ipsum&lt;/font&gt;" style="text;html=1;align=left;verticalAlign=middle;whiteSpace=wrap;rounded=0;" vertex="1" parent="1">
          <mxGeometry x="28" y="252" width="220" height="30" as="geometry" />
        </mxCell>
        <mxCell id="hAxypo4oCh0n1vUcBeg1-12" value="&lt;font style=&quot;font-size: 24px;&quot;&gt;Lorem ipsum&lt;/font&gt;" style="text;html=1;align=left;verticalAlign=middle;whiteSpace=wrap;rounded=0;" vertex="1" parent="1">
          <mxGeometry x="28" y="302" width="220" height="30" as="geometry" />
        </mxCell>
        <mxCell id="hAxypo4oCh0n1vUcBeg1-13" value="&lt;font style=&quot;font-size: 24px;&quot;&gt;Lorem ipsum&lt;/font&gt;" style="text;html=1;align=left;verticalAlign=middle;whiteSpace=wrap;rounded=0;" vertex="1" parent="1">
          <mxGeometry x="28" y="352" width="220" height="30" as="geometry" />
        </mxCell>
        <mxCell id="hAxypo4oCh0n1vUcBeg1-14" value="&lt;font&gt;Lorem ipsum&lt;/font&gt;" style="text;html=1;align=left;verticalAlign=middle;whiteSpace=wrap;rounded=0;fontSize=12;" vertex="1" parent="1">
          <mxGeometry x="29" y="407" width="52" height="30" as="geometry" />
        </mxCell>
        <mxCell id="hAxypo4oCh0n1vUcBeg1-15" value="&lt;font&gt;Lorem ipsum&lt;/font&gt;" style="text;html=1;align=left;verticalAlign=middle;whiteSpace=wrap;rounded=0;fontSize=12;" vertex="1" parent="1">
          <mxGeometry x="129" y="407" width="42" height="30" as="geometry" />
        </mxCell>
        <mxCell id="hAxypo4oCh0n1vUcBeg1-16" value="&lt;font&gt;Lorem ipsum&lt;/font&gt;" style="text;html=1;align=left;verticalAlign=middle;whiteSpace=wrap;rounded=0;fontSize=12;" vertex="1" parent="1">
          <mxGeometry x="228" y="407" width="34" height="30" as="geometry" />
        </mxCell>
        <mxCell id="hAxypo4oCh0n1vUcBeg1-17" value="&lt;font&gt;Lorem ipsum&lt;/font&gt;" style="text;html=1;align=left;verticalAlign=middle;whiteSpace=wrap;rounded=0;fontSize=12;" vertex="1" parent="1">
          <mxGeometry x="330" y="407" width="34" height="30" as="geometry" />
        </mxCell>
        <mxCell id="hAxypo4oCh0n1vUcBeg1-28" value="" style="rounded=0;whiteSpace=wrap;html=1;" vertex="1" parent="1">
          <mxGeometry x="72" y="457" width="50" height="40" as="geometry" />
        </mxCell>
        <mxCell id="hAxypo4oCh0n1vUcBeg1-29" value="" style="rounded=0;whiteSpace=wrap;html=1;" vertex="1" parent="1">
          <mxGeometry x="171" y="457" width="50" height="40" as="geometry" />
        </mxCell>
        <mxCell id="hAxypo4oCh0n1vUcBeg1-30" value="" style="rounded=0;whiteSpace=wrap;html=1;" vertex="1" parent="1">
          <mxGeometry x="268" y="457" width="50" height="40" as="geometry" />
        </mxCell>
        <mxCell id="hAxypo4oCh0n1vUcBeg1-31" value="" style="rounded=0;whiteSpace=wrap;html=1;" vertex="1" parent="1">
          <mxGeometry x="370.3600000000001" y="457" width="50" height="40" as="geometry" />
        </mxCell>
        <mxCell id="hAxypo4oCh0n1vUcBeg1-32" value="&lt;font&gt;Lorem ipsum&lt;/font&gt;" style="text;html=1;align=left;verticalAlign=middle;whiteSpace=wrap;rounded=0;fontSize=12;" vertex="1" parent="1">
          <mxGeometry x="30" y="457" width="52" height="30" as="geometry" />
        </mxCell>
        <mxCell id="hAxypo4oCh0n1vUcBeg1-33" value="&lt;font&gt;Lorem ipsum&lt;/font&gt;" style="text;html=1;align=left;verticalAlign=middle;whiteSpace=wrap;rounded=0;fontSize=12;" vertex="1" parent="1">
          <mxGeometry x="130" y="457" width="42" height="30" as="geometry" />
        </mxCell>
        <mxCell id="hAxypo4oCh0n1vUcBeg1-34" value="&lt;font&gt;Lorem ipsum&lt;/font&gt;" style="text;html=1;align=left;verticalAlign=middle;whiteSpace=wrap;rounded=0;fontSize=12;" vertex="1" parent="1">
          <mxGeometry x="229" y="457" width="34" height="30" as="geometry" />
        </mxCell>
        <mxCell id="hAxypo4oCh0n1vUcBeg1-35" value="&lt;font&gt;Lorem ipsum&lt;/font&gt;" style="text;html=1;align=left;verticalAlign=middle;whiteSpace=wrap;rounded=0;fontSize=12;" vertex="1" parent="1">
          <mxGeometry x="331" y="457" width="34" height="30" as="geometry" />
        </mxCell>
        <mxCell id="hAxypo4oCh0n1vUcBeg1-37" value="" style="rounded=0;whiteSpace=wrap;html=1;" vertex="1" parent="1">
          <mxGeometry x="230" y="517" width="190" height="90" as="geometry" />
        </mxCell>
        <mxCell id="hAxypo4oCh0n1vUcBeg1-38" value="" style="rounded=0;whiteSpace=wrap;html=1;" vertex="1" parent="1">
          <mxGeometry x="28" y="517" width="192" height="90" as="geometry" />
        </mxCell>
        <mxCell id="hAxypo4oCh0n1vUcBeg1-39" value="&lt;font style=&quot;font-size: 24px;&quot;&gt;Lorem ipsum&lt;/font&gt;" style="text;html=1;align=left;verticalAlign=middle;whiteSpace=wrap;rounded=0;" vertex="1" parent="1">
          <mxGeometry x="28" y="607" width="182" height="30" as="geometry" />
        </mxCell>
        <mxCell id="hAxypo4oCh0n1vUcBeg1-40" value="&lt;font style=&quot;font-size: 24px;&quot;&gt;Lorem ipsum&lt;/font&gt;" style="text;html=1;align=left;verticalAlign=middle;whiteSpace=wrap;rounded=0;" vertex="1" parent="1">
          <mxGeometry x="230" y="607" width="182" height="30" as="geometry" />
        </mxCell>
        <mxCell id="hAxypo4oCh0n1vUcBeg1-41" value="&lt;h1 style=&quot;margin-top: 0px;&quot;&gt;Heading&lt;/h1&gt;&lt;p&gt;Lorem ipsum dolor sit amet, consectetur adipisicing elit, sed do eiusmod tempor incididunt ut labore et dolore magna aliqua.&lt;/p&gt;" style="text;html=1;whiteSpace=wrap;overflow=hidden;rounded=0;" vertex="1" parent="1">
          <mxGeometry x="30" y="110" width="180" height="120" as="geometry" />
        </mxCell>
        <mxCell id="hAxypo4oCh0n1vUcBeg1-42" value="" style="rounded=0;whiteSpace=wrap;html=1;" vertex="1" parent="1">
          <mxGeometry x="210" y="110" width="210" height="110" as="geometry" />
        </mxCell>
        <mxCell id="hAxypo4oCh0n1vUcBeg1-43" value="" style="endArrow=none;html=1;rounded=0;fontSize=12;startSize=8;endSize=8;curved=1;fontColor=#7F7F7F;strokeColor=#BDBDBD;" edge="1" parent="1">
          <mxGeometry width="50" height="50" relative="1" as="geometry">
            <mxPoint x="30" y="104.82" as="sourcePoint" />
            <mxPoint x="420" y="105" as="targetPoint" />
          </mxGeometry>
        </mxCell>
        <mxCell id="hAxypo4oCh0n1vUcBeg1-44" value="" style="endArrow=none;html=1;rounded=0;fontSize=12;startSize=8;endSize=8;curved=1;fontColor=#7F7F7F;strokeColor=#BDBDBD;" edge="1" parent="1">
          <mxGeometry width="50" height="50" relative="1" as="geometry">
            <mxPoint x="30" y="292" as="sourcePoint" />
            <mxPoint x="420" y="292.18" as="targetPoint" />
          </mxGeometry>
        </mxCell>
        <mxCell id="hAxypo4oCh0n1vUcBeg1-45" value="" style="endArrow=none;html=1;rounded=0;fontSize=12;startSize=8;endSize=8;curved=1;fontColor=#7F7F7F;strokeColor=#BDBDBD;" edge="1" parent="1">
          <mxGeometry width="50" height="50" relative="1" as="geometry">
            <mxPoint x="31" y="234" as="sourcePoint" />
            <mxPoint x="421" y="234.18" as="targetPoint" />
          </mxGeometry>
        </mxCell>
        <mxCell id="hAxypo4oCh0n1vUcBeg1-46" value="" style="endArrow=none;html=1;rounded=0;fontSize=12;startSize=8;endSize=8;curved=1;fontColor=#7F7F7F;strokeColor=#BDBDBD;" edge="1" parent="1">
          <mxGeometry width="50" height="50" relative="1" as="geometry">
            <mxPoint x="31" y="342" as="sourcePoint" />
            <mxPoint x="421" y="342.18" as="targetPoint" />
          </mxGeometry>
        </mxCell>
        <mxCell id="hAxypo4oCh0n1vUcBeg1-47" value="" style="endArrow=none;html=1;rounded=0;fontSize=12;startSize=8;endSize=8;curved=1;fontColor=#7F7F7F;strokeColor=#BDBDBD;" edge="1" parent="1">
          <mxGeometry width="50" height="50" relative="1" as="geometry">
            <mxPoint x="31" y="396" as="sourcePoint" />
            <mxPoint x="421" y="396.18" as="targetPoint" />
          </mxGeometry>
        </mxCell>
        <mxCell id="hAxypo4oCh0n1vUcBeg1-48" value="" style="endArrow=none;html=1;rounded=0;fontSize=12;startSize=8;endSize=8;curved=1;fontColor=#7F7F7F;strokeColor=#BDBDBD;" edge="1" parent="1">
          <mxGeometry width="50" height="50" relative="1" as="geometry">
            <mxPoint x="29.360000000000014" y="451.82" as="sourcePoint" />
            <mxPoint x="419.36" y="452.00000000000006" as="targetPoint" />
          </mxGeometry>
        </mxCell>
        <mxCell id="hAxypo4oCh0n1vUcBeg1-49" value="" style="endArrow=none;html=1;rounded=0;fontSize=12;startSize=8;endSize=8;curved=1;fontColor=#7F7F7F;strokeColor=#BDBDBD;" edge="1" parent="1">
          <mxGeometry width="50" height="50" relative="1" as="geometry">
            <mxPoint x="29" y="507" as="sourcePoint" />
            <mxPoint x="419" y="507.18000000000006" as="targetPoint" />
          </mxGeometry>
        </mxCell>
        <mxCell id="hAxypo4oCh0n1vUcBeg1-50" value="" style="endArrow=none;html=1;rounded=0;fontSize=12;startSize=8;endSize=8;curved=1;fontColor=#7F7F7F;strokeColor=#BDBDBD;" edge="1" parent="1">
          <mxGeometry width="50" height="50" relative="1" as="geometry">
            <mxPoint x="126.82000000000005" y="411.82" as="sourcePoint" />
            <mxPoint x="126.82000000000005" y="494.00000000000006" as="targetPoint" />
          </mxGeometry>
        </mxCell>
        <mxCell id="hAxypo4oCh0n1vUcBeg1-53" value="" style="endArrow=none;html=1;rounded=0;fontSize=12;startSize=8;endSize=8;curved=1;fontColor=#7F7F7F;strokeColor=#BDBDBD;" edge="1" parent="1">
          <mxGeometry width="50" height="50" relative="1" as="geometry">
            <mxPoint x="225.17000000000002" y="407" as="sourcePoint" />
            <mxPoint x="225.17000000000002" y="489.18000000000006" as="targetPoint" />
          </mxGeometry>
        </mxCell>
        <mxCell id="hAxypo4oCh0n1vUcBeg1-54" value="" style="endArrow=none;html=1;rounded=0;fontSize=12;startSize=8;endSize=8;curved=1;fontColor=#7F7F7F;strokeColor=#BDBDBD;" edge="1" parent="1">
          <mxGeometry width="50" height="50" relative="1" as="geometry">
            <mxPoint x="324.58000000000004" y="407" as="sourcePoint" />
            <mxPoint x="324.58000000000004" y="489.18000000000006" as="targetPoint" />
          </mxGeometry>
        </mxCell>
        <mxCell id="hAxypo4oCh0n1vUcBeg1-55" value="" style="rounded=0;whiteSpace=wrap;html=1;" vertex="1" parent="1">
          <mxGeometry x="560" y="-40" width="530" height="510" as="geometry" />
        </mxCell>
        <mxCell id="hAxypo4oCh0n1vUcBeg1-56" value="&lt;font style=&quot;font-size: 24px;&quot;&gt;Lorem ipsum&lt;/font&gt;" style="text;html=1;align=left;verticalAlign=middle;whiteSpace=wrap;rounded=0;" vertex="1" parent="1">
          <mxGeometry x="600" width="340" height="30" as="geometry" />
        </mxCell>
        <mxCell id="hAxypo4oCh0n1vUcBeg1-57" value="&#xa;&lt;strong style=&quot;margin: 0px; padding: 0px; color: rgb(0, 0, 0); font-family: &amp;quot;Open Sans&amp;quot;, Arial, sans-serif; font-size: 14px; font-style: normal; font-variant-ligatures: normal; font-variant-caps: normal; letter-spacing: normal; orphans: 2; text-indent: 0px; text-transform: none; widows: 2; word-spacing: 0px; -webkit-text-stroke-width: 0px; white-space: normal; background-color: rgb(255, 255, 255); text-decoration-thickness: initial; text-decoration-style: initial; text-decoration-color: initial;&quot;&gt;Lorem Ipsum&lt;/strong&gt;&lt;span style=&quot;color: rgb(0, 0, 0); font-family: &amp;quot;Open Sans&amp;quot;, Arial, sans-serif; font-size: 14px; font-style: normal; font-variant-ligatures: normal; font-variant-caps: normal; font-weight: 400; letter-spacing: normal; orphans: 2; text-indent: 0px; text-transform: none; widows: 2; word-spacing: 0px; -webkit-text-stroke-width: 0px; white-space: normal; background-color: rgb(255, 255, 255); text-decoration-thickness: initial; text-decoration-style: initial; text-decoration-color: initial; float: none; display: inline !important;&quot;&gt;&lt;span&gt;&amp;nbsp;&lt;/span&gt;is simply dummy text of the printing and typesetting industry. Lorem Ipsum has been the industry&#39;s standard dummy text ever since the 1500s, when an unknown printer took a galley of type and scrambled it to make a type specimen book. It has survived not only five centuries, but also the leap into electronic typesetting, remaining essentially unchanged. It was popularised in the 1960s with the release of Letraset sheets containing Lorem Ipsum passages, and more recently with desktop publishing software like Aldus PageMaker including versions of Lorem Ipsum.&lt;/span&gt;&#xa;&#xa;" style="text;html=1;align=left;verticalAlign=middle;whiteSpace=wrap;rounded=0;spacingLeft=30;spacingRight=30;" vertex="1" parent="1">
          <mxGeometry x="600" y="189" width="380" height="297" as="geometry" />
        </mxCell>
        <mxCell id="hAxypo4oCh0n1vUcBeg1-58" value="&lt;br&gt;&lt;strong style=&quot;margin: 0px; padding: 0px; color: rgb(0, 0, 0); font-family: &amp;quot;Open Sans&amp;quot;, Arial, sans-serif; font-size: 14px; font-style: normal; font-variant-ligatures: normal; font-variant-caps: normal; letter-spacing: normal; orphans: 2; text-indent: 0px; text-transform: none; widows: 2; word-spacing: 0px; -webkit-text-stroke-width: 0px; white-space: normal; background-color: rgb(255, 255, 255); text-decoration-thickness: initial; text-decoration-style: initial; text-decoration-color: initial;&quot;&gt;Lorem Ipsum&lt;/strong&gt;&lt;span style=&quot;color: rgb(0, 0, 0); font-family: &amp;quot;Open Sans&amp;quot;, Arial, sans-serif; font-size: 14px; font-style: normal; font-variant-ligatures: normal; font-variant-caps: normal; font-weight: 400; letter-spacing: normal; orphans: 2; text-indent: 0px; text-transform: none; widows: 2; word-spacing: 0px; -webkit-text-stroke-width: 0px; white-space: normal; background-color: rgb(255, 255, 255); text-decoration-thickness: initial; text-decoration-style: initial; text-decoration-color: initial; float: none; display: inline !important;&quot;&gt;&lt;span&gt;&amp;nbsp;&lt;/span&gt;is simply dummy text of the printing and typesetting industry. Lorem Ipsum has been the industry&#39;s standard dummy text ever since the&amp;nbsp;&lt;/span&gt;&lt;div&gt;&lt;br&gt;&lt;/div&gt;" style="text;html=1;align=left;verticalAlign=top;whiteSpace=wrap;rounded=0;" vertex="1" parent="1">
          <mxGeometry x="600" y="10" width="500" height="51" as="geometry" />
        </mxCell>
        <mxCell id="hAxypo4oCh0n1vUcBeg1-60" value="" style="verticalLabelPosition=bottom;shadow=0;dashed=0;align=center;html=1;verticalAlign=top;strokeWidth=1;shape=mxgraph.mockup.graphics.simpleIcon;strokeColor=#999999;" vertex="1" parent="1">
          <mxGeometry x="600" y="70" width="380" height="133" as="geometry" />
        </mxCell>
        <mxCell id="hAxypo4oCh0n1vUcBeg1-61" value="" style="shape=flexArrow;endArrow=classic;html=1;rounded=0;fontSize=12;startSize=8;endSize=8;curved=1;entryX=0;entryY=0.25;entryDx=0;entryDy=0;exitX=1;exitY=0.5;exitDx=0;exitDy=0;" edge="1" parent="1" source="hAxypo4oCh0n1vUcBeg1-3" target="hAxypo4oCh0n1vUcBeg1-55">
          <mxGeometry width="50" height="50" relative="1" as="geometry">
            <mxPoint x="390" y="30" as="sourcePoint" />
            <mxPoint x="440" y="-20" as="targetPoint" />
          </mxGeometry>
        </mxCell>
      </root>
    </mxGraphModel>
  </diagram>
</mxfile>
